# File created by Blade
# Date/Time:  Thu Sep 25 15:55:53 2014
# Frame Rate: 120.000 fps
#------------------------------------------------------
:FULLY-SPECIFIED
:DEGREES
723
root -3.526378 33.098181 2.215949 17.434479 0.064007 4.243405
Spine -10.856958 7.335947 0.514037
Head -10.950814 -9.371414 4.683649
LeftShoulder -8.369967 21.970562 5.047803
LeftArm 28.405468 37.407566 -66.080877
LeftForeArm -6.795869 -0.000000 17.919055
LeftHand -16.413458 -0.000000 -19.551668
LeftHandThumb1 -26.253704 0.000000 33.147579
RightShoulder -16.106157 7.970489 -19.376963
RightArm -14.515292 -41.494188 100.745483
RightForeArm -13.619558 -0.000000 25.243350
RightHand 1.210030 0.000000 16.383511
RightHandThumb1 -24.326973 -0.000000 -32.862282
LeftUpLeg -14.861149 2.860368 -5.465642
LeftLeg 5.347356 -0.000000 -0.000000
LeftFoot -11.669681 0.646876 -27.402248
LeftToeBase -4.273819 -0.000000 0.000000
RightUpLeg -14.122996 -6.206520 0.462377
RightLeg 4.484672 -0.000000 -0.000000
RightFoot -10.305034 -0.078098 -6.543596
RightToeBase -5.158744 -0.000000 0.000000
724
root -3.497875 33.066114 2.263403 17.186613 0.033597 3.816743
Spine -11.038329 7.113890 1.012520
Head -10.616710 -9.096365 4.635021
LeftShoulder -8.620148 22.039363 4.963854
LeftArm 29.021403 37.860041 -65.160561
LeftForeArm -5.950239 -0.000000 17.731251
LeftHand -16.446560 0.000000 -20.432458
LeftHandThumb1 -26.253704 0.000000 33.147579
RightShoulder -16.331024 7.760740 -19.292735
RightArm -14.498229 -41.209585 100.152228
RightForeArm -13.534630 -0.000000 24.753415
RightHand 0.987809 -0.000000 16.969083
RightHandThumb1 -24.326973 -0.000000 -32.862282
LeftUpLeg -14.607535 3.140232 -5.179059
LeftLeg 5.450258 -0.000000 -0.000000
LeftFoot -11.551212 0.903382 -25.542275
LeftToeBase -3.817646 -0.000000 0.000000
RightUpLeg -13.653595 -6.000808 0.751898
RightLeg 4.216546 -0.000000 -0.000000
RightFoot -10.308867 -0.058997 -6.532605
RightToeBase -5.259778 -0.000000 0.000000
725
root -3.487345 33.033383 2.299607 17.010674 -0.017059 3.267683
Spine -11.263511 6.984265 1.571833
Head -10.345618 -8.801459 4.687806
LeftShoulder -8.764214 22.000619 5.014579
LeftArm 29.348076 37.986170 -64.614783
LeftForeArm -4.837124 0.000000 17.442948
LeftHand -16.381865 -0.000000 -21.543754
LeftHandThumb1 -26.253704 0.000000 33.147579
RightShoulder -16.521933 7.635475 -19.202855
RightArm -14.603780 -40.490299 99.458577
RightForeArm -13.768054 -0.000000 24.379581
RightHand 0.633147 -0.000000 17.023536
RightHandThumb1 -24.326973 -0.000000 -32.862282
LeftUpLeg -14.407525 3.403579 -4.701137
LeftLeg 5.445447 -0.000000 -0.000000
LeftFoot -11.522359 1.327589 -24.543272
LeftToeBase -3.170257 -0.000000 0.000000
RightUpLeg -13.297296 -5.811906 1.209324
RightLeg 3.975199 -0.000000 -0.000000
RightFoot -10.274219 0.064704 -6.500581
RightToeBase -5.323966 -0.000000 0.000000
726
root -3.465790 32.998879 2.337169 16.814000 -0.067978 2.772946
Spine -11.447529 6.861303 2.076980
Head -10.113937 -8.519412 4.772377
LeftShoulder -8.812979 21.879384 5.149647
LeftArm 29.168122 37.331263 -64.861734
LeftForeArm -2.974481 0.000000 16.982649
LeftHand -16.545111 -0.000000 -22.723986
LeftHandThumb1 -26.253704 0.000000 33.147579
RightShoulder -16.796935 7.409720 -19.117339
RightArm -14.453696 -39.748477 98.515528
RightForeArm -13.999263 -0.000000 23.914209
RightHand 0.514434 -0.000000 17.218757
RightHandThumb1 -24.326973 -0.000000 -32.862282
LeftUpLeg -14.134319 3.611405 -4.268444
LeftLeg 5.297343 -0.000000 -0.000000
LeftFoot -11.473578 1.948868 -24.105681
LeftToeBase -2.346016 -0.000000 0.000000
RightUpLeg -12.901330 -5.448101 1.561906
RightLeg 3.719194 -0.000000 -0.000000
RightFoot -10.266915 -0.056120 -6.420872
RightToeBase -5.312498 -0.000000 0.000000
727
root -3.446485 32.963250 2.369919 16.685683 -0.105528 2.267712
Spine -11.685293 6.702200 2.602513
Head -9.959564 -8.254420 4.871344
LeftShoulder -8.969260 21.841490 5.261799
LeftArm 29.233749 37.018310 -64.676174
LeftForeArm -1.576657 -0.000000 16.630165
LeftHand -16.675849 -0.000000 -23.391109
LeftHandThumb1 -26.253704 0.000000 33.147579
RightShoulder -16.989322 7.249141 -19.092227
RightArm -14.378092 -38.840503 97.594877
RightForeArm -14.867402 -0.000000 23.391396
RightHand 0.676973 -0.000000 17.266865
RightHandThumb1 -24.326973 -0.000000 -32.862282
LeftUpLeg -13.918302 3.836992 -3.818898
LeftLeg 5.084315 -0.000000 -0.000000
LeftFoot -11.364334 2.460861 -23.583257
LeftToeBase -1.178406 -0.000000 0.000000
RightUpLeg -12.586648 -5.041987 1.932356
RightLeg 3.479552 -0.000000 -0.000000
RightFoot -10.260668 -0.216933 -6.331399
RightToeBase -5.316536 -0.000000 0.000000
728
root -3.422918 32.928060 2.400315 16.508552 -0.235579 1.754724
Spine -11.822390 6.625452 3.117141
Head -9.820203 -7.914304 4.987101
LeftShoulder -8.998067 21.783048 5.428813
LeftArm 28.945106 36.217209 -64.897679
LeftForeArm 0.217932 0.000000 16.325836
LeftHand -16.821213 -0.000000 -24.142373
LeftHandThumb1 -26.253704 0.000000 33.147579
RightShoulder -17.150452 7.081192 -19.077409
RightArm -14.216303 -37.844655 96.526792
RightForeArm -15.574314 -0.000000 22.951132
RightHand 0.494621 -0.000000 17.296981
RightHandThumb1 -24.326973 -0.000000 -32.862282
LeftUpLeg -13.624606 4.229130 -3.417996
LeftLeg 4.830231 -0.000000 -0.000000
LeftFoot -11.210319 2.576685 -22.934448
LeftToeBase 0.329380 -0.000000 -0.000000
RightUpLeg -12.254884 -4.630798 2.289572
RightLeg 3.286605 -0.000000 -0.000000
RightFoot -10.274846 -0.302937 -6.271745
RightToeBase -5.300742 -0.000000 0.000000
729
root -3.398598 32.893473 2.428941 16.385218 -0.329358 1.252553
Spine -12.015682 6.509853 3.613406
Head -9.719661 -7.630100 5.146608
LeftShoulder -9.119700 21.901823 5.588529
LeftArm 29.068052 35.718177 -64.607646
LeftForeArm 1.274062 -0.000000 15.979383
LeftHand -16.864796 -0.000000 -24.574654
LeftHandThumb1 -26.253704 0.000000 33.147579
RightShoulder -17.359203 6.830802 -19.079598
RightArm -13.932174 -36.916072 95.356880
RightForeArm -16.142734 -0.000000 22.495509
RightHand 0.085285 -0.000000 16.429608
RightHandThumb1 -24.326973 -0.000000 -32.862282
LeftUpLeg -13.367429 4.580321 -3.043461
LeftLeg 4.606847 -0.000000 -0.000000
LeftFoot -11.256249 2.382946 -21.894920
LeftToeBase 1.464422 -0.000000 -0.000000
RightUpLeg -11.980096 -4.298621 2.661915
RightLeg 3.099391 -0.000000 -0.000000
RightFoot -10.294039 -0.374848 -6.178189
RightToeBase -5.296461 -0.000000 0.000000
730
root -3.365829 32.863405 2.449657 16.301693 -0.475790 0.779768
Spine -12.210981 6.452937 4.063369
Head -9.659645 -7.335309 5.350969
LeftShoulder -9.207929 22.070592 5.747430
LeftArm 29.215213 35.210538 -64.178223
LeftForeArm 2.076680 -0.000000 15.681026
LeftHand -17.061192 -0.000000 -24.624081
LeftHandThumb1 -26.253704 0.000000 33.147579
RightShoulder -17.499185 6.676848 -19.123726
RightArm -13.671021 -35.698109 94.117476
RightForeArm -16.745756 -0.000000 21.950076
RightHand -0.262874 0.000000 16.185735
RightHandThumb1 -24.326973 -0.000000 -32.862282
LeftUpLeg -13.129101 4.950501 -2.746467
LeftLeg 4.385918 -0.000000 -0.000000
LeftFoot -11.401637 2.219266 -20.854514
LeftToeBase 1.935192 -0.000000 -0.000000
RightUpLeg -11.769182 -4.024783 2.996173
RightLeg 2.905362 -0.000000 -0.000000
RightFoot -10.243847 -0.430863 -6.214839
RightToeBase -5.431443 -0.000000 0.000000
731
root -3.332997 32.833495 2.480893 16.142604 -0.609022 0.353338
Spine -12.317722 6.315718 4.469799
Head -9.609513 -6.960843 5.573015
LeftShoulder -9.357485 22.349136 5.896666
LeftArm 29.386184 34.432545 -63.750888
LeftForeArm 2.665021 -0.000000 15.373734
LeftHand -17.324539 -0.000000 -24.782905
LeftHandThumb1 -26.253704 0.000000 33.147579
RightShoulder -17.608066 6.499621 -19.171644
RightArm -13.319165 -34.475718 92.792673
RightForeArm -17.377972 -0.000000 21.369333
RightHand -0.590952 -0.000000 15.684646
RightHandThumb1 -24.326973 -0.000000 -32.862282
LeftUpLeg -12.783092 5.492657 -2.519320
LeftLeg 4.144278 -0.000000 -0.000000
LeftFoot -11.705852 2.061464 -20.331818
LeftToeBase 2.696298 -0.000000 -0.000000
RightUpLeg -11.459156 -3.773412 3.273970
RightLeg 2.727979 -0.000000 -0.000000
RightFoot -10.277547 -0.398715 -6.085728
RightToeBase -5.386730 -0.000000 0.000000
732
root -3.301444 32.809473 2.510751 15.982018 -0.700880 -0.044214
Spine -12.397249 6.171889 4.842667
Head -9.587904 -6.671267 5.788932
LeftShoulder -9.476461 22.739849 6.024309
LeftArm 29.672609 33.489620 -63.163179
LeftForeArm 2.688844 -0.000000 14.990231
LeftHand -17.654110 -0.000000 -24.835893
LeftHandThumb1 -26.253704 0.000000 33.147579
RightShoulder -17.751247 6.346732 -19.199785
RightArm -12.902699 -33.057065 91.325243
RightForeArm -18.173393 -0.000000 20.761062
RightHand -0.655015 -0.000000 15.997208
RightHandThumb1 -24.326973 -0.000000 -32.862282
LeftUpLeg -12.435783 6.260663 -2.363210
LeftLeg 3.855590 -0.000000 -0.000000
LeftFoot -11.884763 1.766695 -19.921770
LeftToeBase 3.185914 -0.000000 -0.000000
RightUpLeg -11.163861 -3.644816 3.542137
RightLeg 2.590250 -0.000000 -0.000000
RightFoot -10.323247 -0.191224 -5.863911
RightToeBase -5.254286 -0.000000 0.000000
733
root -3.264012 32.793756 2.528809 15.881919 -0.882922 -0.343984
Spine -12.502995 6.119012 5.026866
Head -9.594144 -6.445913 6.099241
LeftShoulder -9.527356 23.088971 6.241219
LeftArm 29.831794 32.464608 -62.567757
LeftForeArm 2.502990 -0.000000 14.675328
LeftHand -17.937639 -0.000000 -24.603780
LeftHandThumb1 -26.253704 0.000000 33.147579
RightShoulder -17.879556 6.260596 -19.219349
RightArm -12.592873 -31.620557 89.872421
RightForeArm -18.960118 -0.000000 20.181074
RightHand -0.931974 0.000000 15.787477
RightHandThumb1 -24.326973 -0.000000 -32.862282
LeftUpLeg -12.070859 6.704477 -2.253582
LeftLeg 3.385157 -0.000000 -0.000000
LeftFoot -11.968455 1.771920 -19.804305
LeftToeBase 3.481162 -0.000000 -0.000000
RightUpLeg -11.002197 -3.501224 3.699622
RightLeg 2.541769 -0.000000 -0.000000
RightFoot -10.359265 -0.007688 -5.722171
RightToeBase -5.215636 -0.000000 0.000000
734
root -3.217484 32.782966 2.566808 15.711149 -0.997007 -0.530651
Spine -12.582493 5.882056 5.140487
Head -9.517886 -6.158326 6.366093
LeftShoulder -9.720783 23.517608 6.394933
LeftArm 29.982466 31.418891 -61.853239
LeftForeArm 2.129325 -0.000000 14.394866
LeftHand -18.139886 -0.000000 -24.564348
LeftHandThumb1 -26.253704 0.000000 33.147579
RightShoulder -17.960658 6.157570 -19.265516
RightArm -12.217724 -30.092517 88.320674
RightForeArm -19.439984 -0.000000 19.585020
RightHand -1.172231 -0.000000 15.559041
RightHandThumb1 -24.326973 -0.000000 -32.862282
LeftUpLeg -11.578019 7.341630 -2.277958
LeftLeg 2.849099 -0.000000 -0.000000
LeftFoot -11.878731 1.531316 -19.511962
LeftToeBase 3.857149 -0.000000 -0.000000
RightUpLeg -10.727871 -3.565717 3.764500
RightLeg 2.470952 -0.000000 -0.000000
RightFoot -10.399333 0.279186 -5.576136
RightToeBase -5.249987 -0.000000 0.000000
